<?xml version="1.0" encoding="utf-8"?>
<!-- Generator: Adobe Illustrator 17.1.0, SVG Export Plug-In . SVG Version: 6.00 Build 0)  -->
<!DOCTYPE svg PUBLIC "-//W3C//DTD SVG 1.1//EN" "http://www.w3.org/Graphics/SVG/1.1/DTD/svg11.dtd">
<svg version="1.1" id="Layer_1" xmlns="http://www.w3.org/2000/svg" xmlns:xlink="http://www.w3.org/1999/xlink" x="0px" y="0px"
	 viewBox="0 0 10 10" enable-background="new 0 0 10 10" xml:space="preserve">
<g>
	<g>
		<g>
			<path fill="#A0A0A0" d="M9.6,10c-0.1,0-0.2,0-0.3-0.1L0.1,0.7C0,0.5,0,0.3,0.1,0.1C0.3,0,0.5,0,0.7,0.1l9.2,9.2
				c0.2,0.2,0.2,0.4,0,0.6C9.8,10,9.7,10,9.6,10z"/>
		</g>
		<g>
			<path fill="#A0A0A0" d="M0.4,10c-0.1,0-0.2,0-0.3-0.1C0,9.7,0,9.5,0.1,9.3l9.2-9.2C9.5,0,9.7,0,9.9,0.1c0.2,0.2,0.2,0.4,0,0.6
				L0.7,9.9C0.6,10,0.5,10,0.4,10z"/>
		</g>
	</g>
</g>
</svg>
